<?xml version="1.0" encoding="UTF-8" standalone="no"?>
<svg
   viewBox="0 0 640 480"
   version="1.1"
   id="svg145"
   sodipodi:docname="notes-311995.svg"
   inkscape:version="1.1.1 (3bf5ae0d25, 2021-09-20)"
   xmlns:inkscape="http://www.inkscape.org/namespaces/inkscape"
   xmlns:sodipodi="http://sodipodi.sourceforge.net/DTD/sodipodi-0.dtd"
   xmlns="http://www.w3.org/2000/svg"
   xmlns:svg="http://www.w3.org/2000/svg">
  <sodipodi:namedview
     id="namedview147"
     pagecolor="#ffffff"
     bordercolor="#666666"
     borderopacity="1.0"
     inkscape:pageshadow="2"
     inkscape:pageopacity="0.0"
     inkscape:pagecheckerboard="0"
     showgrid="false"
     inkscape:zoom="3.4333334"
     inkscape:cx="359.85436"
     inkscape:cy="191.94174"
     inkscape:window-width="1208"
     inkscape:window-height="754"
     inkscape:window-x="220"
     inkscape:window-y="162"
     inkscape:window-maximized="0"
     inkscape:current-layer="g143" />
  <defs
     id="defs47">
    <filter
       id="w"
       x="-0.019245901"
       y="-0.0085527016"
       width="1.0384918"
       height="1.0171054"
       color-interpolation-filters="sRGB">
      <feGaussianBlur
         stdDeviation="0.21602"
         id="feGaussianBlur2" />
    </filter>
    <filter
       id="p"
       color-interpolation-filters="sRGB"
       x="-0.0074490995"
       y="-0.0036495777"
       width="1.0148982"
       height="1.0072992">
      <feGaussianBlur
         stdDeviation="0.09357"
         id="feGaussianBlur5" />
    </filter>
    <filter
       id="x"
       x="-0.021601056"
       y="-0.0097357398"
       width="1.0432021"
       height="1.0194715"
       color-interpolation-filters="sRGB">
      <feGaussianBlur
         stdDeviation="0.29821"
         id="feGaussianBlur8" />
    </filter>
    <filter
       id="a"
       color-interpolation-filters="sRGB"
       x="-0.00066843631"
       y="-0.0016317945"
       width="1.0013369"
       height="1.0032636">
      <feGaussianBlur
         stdDeviation="0.15875"
         id="feGaussianBlur11" />
    </filter>
    <filter
       id="y"
       color-interpolation-filters="sRGB"
       x="-0.017225084"
       y="-0.0073106088"
       width="1.0344502"
       height="1.0146212">
      <feGaussianBlur
         stdDeviation="0.18784"
         id="feGaussianBlur14" />
    </filter>
    <filter
       id="ac"
       color-interpolation-filters="sRGB"
       x="-0.005521258"
       y="-0.005477819"
       width="1.0110425"
       height="1.0109556">
      <feGaussianBlur
         stdDeviation="0.0422"
         id="feGaussianBlur17" />
    </filter>
    <filter
       id="r"
       color-interpolation-filters="sRGB"
       x="-0.012707517"
       y="-0.0057269801"
       width="1.025415"
       height="1.011454">
      <feGaussianBlur
         stdDeviation="0.17542"
         id="feGaussianBlur20" />
    </filter>
    <filter
       id="q"
       x="-0.11027066"
       y="-0.08943603"
       width="1.2205413"
       height="1.1788721"
       color-interpolation-filters="sRGB">
      <feGaussianBlur
         stdDeviation="0.17036"
         id="feGaussianBlur23" />
    </filter>
    <filter
       id="ab"
       color-interpolation-filters="sRGB"
       x="-0.014114201"
       y="-0.012791756"
       width="1.0282284"
       height="1.0255835">
      <feGaussianBlur
         stdDeviation="0.07469"
         id="feGaussianBlur26" />
    </filter>
    <filter
       id="s"
       color-interpolation-filters="sRGB"
       x="-0.0057869709"
       y="-0.0034480116"
       width="1.0115739"
       height="1.006896">
      <feGaussianBlur
         stdDeviation="0.09992"
         id="feGaussianBlur29" />
    </filter>
    <filter
       id="z"
       x="-0.021653943"
       y="-0.013432956"
       width="1.0433079"
       height="1.0268659"
       color-interpolation-filters="sRGB">
      <feGaussianBlur
         stdDeviation="0.4219"
         id="feGaussianBlur32" />
    </filter>
    <filter
       id="aa"
       color-interpolation-filters="sRGB"
       x="-0.014914549"
       y="-0.006941812"
       width="1.0298291"
       height="1.0138836">
      <feGaussianBlur
         stdDeviation="0.17803"
         id="feGaussianBlur35" />
    </filter>
    <filter
       id="u"
       color-interpolation-filters="sRGB"
       x="-0.010384801"
       y="-0.0063685265"
       width="1.0207696"
       height="1.0127371">
      <feGaussianBlur
         stdDeviation="0.17787"
         id="feGaussianBlur38" />
    </filter>
    <filter
       id="t"
       x="-0.02051014"
       y="-0.0075653956"
       width="1.0410203"
       height="1.0151308"
       color-interpolation-filters="sRGB">
      <feGaussianBlur
         stdDeviation="0.2341"
         id="feGaussianBlur41" />
    </filter>
    <filter
       id="v"
       color-interpolation-filters="sRGB"
       x="-0.013284766"
       y="-0.013561953"
       width="1.0265695"
       height="1.0271239">
      <feGaussianBlur
         stdDeviation="0.17339"
         id="feGaussianBlur44" />
    </filter>
  </defs>
  <g
     transform="rotate(15.928,316.72398,198.60412)"
     id="g143"
     style="fill:#000000">
    <path
       d="m 197.44,230.54 c 30.159,-10.929 22.071,75.751 53.903,79.722 75.89,9.4675 94.864,-156.05 171.27,-152.67 23.195,1.0262 24.52,49.429 47.699,50.756 67.218,3.8469 153.82,-131.18 153.82,-131.18 0,0 -87.042,133.22 -154.26,129.38 -23.179,-1.3264 -24.504,-49.73 -47.699,-50.756 -76.403,-3.3792 -95.378,162.13 -171.27,152.67 C 219.071,304.4908 227.159,217.81 197,228.74 158.5,242.692 71.11,394.45 37.97,371.71 71.55,396.254 158.94,244.49 197.44,230.54 Z"
       id="path69"
       style="fill:#ffffff" />
    <path
       d="m 175.44,166.13 c 30.159,-10.93 22.071,75.751 53.903,79.722 75.89,9.4676 94.864,-156.05 171.27,-152.67 23.195,1.0263 24.52,49.429 47.699,50.756 67.218,3.8469 153.82,-131.18 153.82,-131.18 0,0 -87.042,133.22 -154.26,129.38 -23.179,-1.3265 -24.504,-49.73 -47.699,-50.756 -76.403,-3.3792 -95.378,162.13 -171.27,152.67 C 197.072,240.0809 205.159,153.4 175,164.33 136.5,178.282 49.11,330.04 15.97,307.3 49.55,331.844 136.94,180.08 175.44,166.13 Z"
       id="path71"
       style="fill:#ffffff" />
    <path
       d="m 182.32,180.37 c 30.159,-10.93 22.071,75.751 53.903,79.722 75.89,9.4677 94.864,-156.05 171.27,-152.67 23.195,1.0263 24.52,49.429 47.699,50.756 67.218,3.8469 153.82,-131.18 153.82,-131.18 0,0 -87.042,133.22 -154.26,129.38 -23.179,-1.3265 -24.504,-49.73 -47.699,-50.756 -76.403,-3.3792 -95.378,162.13 -171.27,152.67 C 203.952,254.3209 212.039,167.64 181.88,178.57 143.38,192.522 55.99,344.28 22.85,321.54 56.43,346.084 143.82,194.32 182.32,180.37 h 1e-5 z"
       id="path73"
       style="fill:#ffffff" />
    <path
       d="m 189.2,196.68 c 30.159,-10.93 22.071,75.751 53.903,79.722 75.89,9.4677 94.864,-156.05 171.27,-152.67 23.195,1.0263 24.52,49.429 47.699,50.756 67.219,3.8469 153.82,-131.18 153.82,-131.18 0,0 -87.042,133.22 -154.26,129.38 -23.179,-1.3265 -24.504,-49.73 -47.699,-50.756 -76.403,-3.3792 -95.378,162.13 -171.27,152.67 C 210.832,270.6309 218.919,183.95 188.76,194.88 150.26,208.832 62.87,360.59 29.73,337.85 63.31,362.394 150.7,210.63 189.2,196.68 Z"
       id="path75"
       style="fill:#ffffff" />
    <path
       d="m 193.82,215.11 c 30.159,-10.929 22.071,75.751 53.903,79.722 75.89,9.4676 94.864,-156.05 171.27,-152.67 23.195,1.0262 24.52,49.429 47.699,50.756 67.218,3.8469 153.82,-131.18 153.82,-131.18 0,0 -87.042,133.22 -154.26,129.38 -23.179,-1.3265 -24.504,-49.73 -47.699,-50.756 -76.403,-3.3792 -95.378,162.13 -171.27,152.67 C 215.451,289.0608 223.539,202.38 193.38,213.31 154.88,227.262 67.49,379.02 34.35,356.28 67.93,380.824 155.32,229.06 193.82,215.11 Z"
       id="path77"
       style="fill:#ffffff" />
    <path
       d="m 61.581,322.21 c 0.40241,1.2236 -0.0344,2.4664 -0.97563,2.776 -0.94122,0.30954 -2.0304,-0.43146 -2.4328,-1.655 -0.40241,-1.2236 0.03439,-2.4664 0.97562,-2.776 0.94122,-0.30954 2.0304,0.43143 2.4328,1.655 z"
       id="path81"
       style="fill:#ffffff" />
    <path
       d="m 66.125,334.88 c 0.40241,1.2236 -0.03441,2.4664 -0.97564,2.776 -0.94121,0.30954 -2.0304,-0.43143 -2.4328,-1.655 -0.4024,-1.2236 0.0344,-2.4664 0.97562,-2.776 0.94123,-0.30954 2.0305,0.43143 2.4329,1.655 z"
       id="path85"
       style="fill:#ffffff" />
    <path
       d="m 102.38,281.94 c -2.2673,-12.399 -5.7524,-20.226 -27.066,-19.333 l 37.312,49.878 c 3.2773,14.196 -12.119,19.012 -17.206,13.726 -4.7209,-4.9055 3.0654,-16.753 13.34,-15.466 L 71.641,260.287 c 24.779,-3.2662 34.353,-3.4643 30.739,21.653 z"
       id="path105"
       style="fill:#ffffff" />
    <path
       d="m 130.32,254.1 c -3.3796,4.0661 -4.8735,10.017 -1.6259,12.892 3.3051,2.9258 9.5426,0.37854 12.863,-3.1986 3.5564,-3.83 5.5117,-10.092 2.2507,-13.1 -3.4052,-3.1409 -10.225,-0.51971 -13.488,3.4062 z m 11.446,-1.1644 c 2.2237,2.1494 0.27527,6.1297 -2.3971,8.952 -2.2167,2.3397 -6.4414,4.9257 -8.6824,2.8644 -2.3157,-2.1302 -0.32367,-6.502 2.2325,-9.1599 2.5061,-2.6063 6.6354,-4.7945 8.847,-2.6565 z"
       stroke-width="0.127"
       id="path107"
       style="fill:#ffffff" />
    <path
       d="m 279.39,256 c 1.5724,-12.506 0.60623,-21.02 -19.986,-26.587 l 20.557,58.8 c -1.1512,14.524 -17.282,14.48 -20.541,7.9065 -3.0241,-6.0997 7.9688,-15.052 17.378,-10.73 L 256.6,226.0945 c 24.612,4.3484 33.801,7.0432 22.79,29.905 z"
       id="path109"
       style="fill:#ffffff" />
    <path
       d="m 322.93,199.53 c 5.791,2.583 15.389,-4.603 12.845,-9.218 -2.913,-5.284 -16.315,-2.647 -16.775,6.8 l 17.077,41.105 24.028,-15.112 -16.17,-40.047 c 7.098,2.443 15.694,-4.867 12.241,-9.672 -3.432,-4.776 -17.485,-1.678 -15.565,8.312 l 15.414,38.687 -19.495,13.148 z"
       id="path113"
       style="fill:#ffffff" />
    <path
       d="m 350.3,136.72 c 9.081,4.096 10.061,11.399 10.879,12.085 l 12.841,1.815 c -17.076,1.615 -6.683,17.527 7.605,16.756 -18.329,-10.607 -11.589,-8.649 -4.354,-17.296 -11.723,-4.824 -7.608,-11.938 -11.018,-12.546 z"
       id="path117"
       style="fill:#ffffff" />
    <path
       d="m 401.08,162.69 c 14.721,-15.479 8.686,-23.804 1.758,-33.236 23.163,14.168 14.048,21.905 -2.397,37.071 l -16.778,-62.797 c 0.93399,-13.641 19.67,-13.06 22.051,-4.954 1.942,6.611 -9.868,10.937 -18.855,8.469 z"
       id="path121"
       style="fill:#ffffff" />
    <path
       d="m 482.31,140.47 1.386,0.51901 -6.756,61.15 h -1.559 l 6.582,-57.512 c -3.899,7.503 -16.101,21.29 -23.333,15.41 -2.273,-1.848 -0.991,-9.547 3.244,-8.166 7.03,2.291 12.424,1.645 14.373,-1.528 l 6.063,-9.873 z"
       id="path123"
       style="fill:#ffffff" />
    <path
       d="m 545.23,161.73 c -6.595,-2.943 -17.594,5.09 -14.718,10.302 3.292,5.966 18.606,3.077 19.188,-7.556 l -19.243,-46.381 -27.518,16.871 18.214,45.183 c -8.0859,-2.792 -17.943,5.386 -14.031,10.816 3.889,5.398 19.948,1.994 17.818,-9.265 l -17.36,-43.648 22.331,-14.685 z"
       id="path125"
       style="fill:#ffffff" />
    <path
       d="m 580.49,80.914 4.022,3.254 8.678,-10.801 -4.113,-3.209 z"
       id="path127"
       style="fill:#ffffff" />
    <path
       d="m 41.277,303.03 1.3729,-0.66602 28.675,60.154 -1.134,1.294 -28.914,-60.782 z"
       id="path131"
       style="fill:#ffffff" />
    <path
       d="m 37.03,305.39 1.4157,-0.64801 28.897,61.083 -1.603,0.5 -28.71,-60.935 z"
       id="path133"
       style="fill:#ffffff" />
    <path
       d="m 184.54,255.5 c 14.721,-15.479 8.686,-23.805 1.758,-33.236 23.163,14.168 14.048,21.905 -2.397,37.071 l -16.778,-62.797 c 0.93402,-13.641 19.67,-13.06 22.051,-4.954 1.942,6.611 -9.868,10.937 -18.855,8.468 z"
       id="path137"
       style="fill:#ffffff" />
    <path
       d="m 289.47,209.76 1.518,-0.62 25.416,59.858 -1.16,0.76202 -25.774,-60 z"
       id="path139"
       style="fill:#ffffff" />
    <path
       d="m 542.02,86.931 1.55,-0.65599 27.097,60.754 -1.179,0.797 -27.468,-60.895 z"
       id="path141"
       style="fill:#ffffff" />
  </g>
</svg>
